<svg xmlns="http://www.w3.org/2000/svg" fill="none" viewBox="0 0 580 558"><g opacity=".12"><path fill="url(#a)" d="M564.81 176.06 371.18-89.55c-26.68-36.6-78.17-36.6-104.85-.01l-22.67 31.08 170.98 234.54c18.94 25.98 18.94 62.52 0 88.5l-171 234.48 22.66 31.07c26.67 36.6 78.17 36.6 104.85.01L564.8 264.56c18.94-25.98 18.95-62.52.01-88.5Z"/><path fill="url(#b)" d="m-129.92 264.52 193.63 265.6c26.68 36.6 78.18 36.6 104.86 0l193.65-265.56c18.94-25.98 18.94-62.52 0-88.5L168.6-89.55c-26.67-36.6-78.16-36.6-104.85-.01L-129.9 176c-18.95 25.98-18.95 62.53 0 88.51Z"/></g><defs><linearGradient id="a" x1="217.45" x2="217.45" y1="-5" y2="557.57" gradientUnits="userSpaceOnUse"><stop stop-color="#45AAFD"/><stop offset="1" stop-color="#00569C" stop-opacity=".1"/></linearGradient><linearGradient id="b" x1="217.45" x2="217.45" y1="-5" y2="557.57" gradientUnits="userSpaceOnUse"><stop stop-color="#45AAFD"/><stop offset="1" stop-color="#00569C" stop-opacity=".1"/></linearGradient></defs></svg>